<svg width="18" height="18" viewBox="0 0 18 18" fill="none" xmlns="http://www.w3.org/2000/svg">
<path d="M10.8975 7.1025C10.41 6.615 9.7425 6.315 9 6.315C7.515 6.315 6.315 7.515 6.315 9C6.315 9.7425 6.615 10.41 7.1025 10.8975" stroke="#02050F" stroke-width="1.5" stroke-linecap="round" stroke-linejoin="round"/>
<path d="M7.1025 10.8975C7.59 11.385 8.2575 11.685 9 11.685C10.485 11.685 11.685 10.485 11.685 9C11.685 8.2575 11.385 7.59 10.8975 7.1025" stroke="#02050F" stroke-width="1.5" stroke-linecap="round" stroke-linejoin="round"/>
<path d="M13.365 4.3275C12.0525 3.3375 10.5525 2.7975 9 2.7975C6.3525 2.7975 3.885 4.3575 2.1675 7.0575C1.4925 8.115 1.4925 9.8925 2.1675 10.95C2.76 11.88 4.5 13.5 5.5 14" stroke="#02050F" stroke-width="1.5" stroke-linecap="round" stroke-linejoin="round"/>
<path d="M5.5 14C7 15 8.0775 15.2025 9 15.2025C11.6475 15.2025 14.115 13.6425 15.8325 10.9425C16.5075 9.88499 16.5075 8.10749 15.8325 7.04999C15.585 6.65999 15.315 6.29249 15.0375 5.94749" stroke="#02050F" stroke-width="1.5" stroke-linecap="round" stroke-linejoin="round"/>
</svg>
