<svg width="48" height="43" viewBox="0 0 48 43" fill="none" xmlns="http://www.w3.org/2000/svg">
<path d="M15.3229 42.25V37.6667H4.4375C3.52083 37.6667 2.71875 37.3229 2.03125 36.6354C1.34375 35.9479 1 35.1458 1 34.2292V4.4375C1 3.52083 1.34375 2.71875 2.03125 2.03125C2.71875 1.34375 3.52083 1 4.4375 1H43.3958C44.3125 1 45.1146 1.34375 45.8021 2.03125C46.4896 2.71875 46.8333 3.52083 46.8333 4.4375V34.2292C46.8333 35.1458 46.4896 35.9479 45.8021 36.6354C45.1146 37.3229 44.3125 37.6667 43.3958 37.6667H32.5104V42.25H15.3229ZM4.4375 34.2292H43.3958V4.4375H4.4375V34.2292Z" fill="#B0B0B3"/>
<path d="M20.5717 26C18.8729 26 16.3895 23.2631 14.716 21.5378C13.0426 19.8126 14.716 18.95 15.5528 19.8126C16.3897 20.6752 18.3488 24.1312 20.5717 24.1257C22.7947 24.1201 31.1378 16.1303 32.8105 15.2672C34.4831 14.4041 35.9303 15.8336 34.2574 16.6981C32.5845 17.5627 22.2705 26 20.5717 26Z" fill="#B0B0B3"/>
<path d="M15.3229 42.25V37.6667H4.4375C3.52083 37.6667 2.71875 37.3229 2.03125 36.6354C1.34375 35.9479 1 35.1458 1 34.2292V4.4375C1 3.52083 1.34375 2.71875 2.03125 2.03125C2.71875 1.34375 3.52083 1 4.4375 1H43.3958C44.3125 1 45.1146 1.34375 45.8021 2.03125C46.4896 2.71875 46.8333 3.52083 46.8333 4.4375V34.2292C46.8333 35.1458 46.4896 35.9479 45.8021 36.6354C45.1146 37.3229 44.3125 37.6667 43.3958 37.6667H32.5104V42.25H15.3229ZM4.4375 34.2292H43.3958V4.4375H4.4375V34.2292Z" stroke="#B0B0B3"/>
<path d="M20.5717 26C18.8729 26 16.3895 23.2631 14.716 21.5378C13.0426 19.8126 14.716 18.95 15.5528 19.8126C16.3897 20.6752 18.3488 24.1312 20.5717 24.1257C22.7947 24.1201 31.1378 16.1303 32.8105 15.2672C34.4831 14.4041 35.9303 15.8336 34.2574 16.6981C32.5845 17.5627 22.2705 26 20.5717 26Z" stroke="#B0B0B3"/>
</svg>
