<svg width="29" height="26" viewBox="0 0 29 26" fill="none" xmlns="http://www.w3.org/2000/svg">
<path d="M9.4375 25V22.3333H3.025C2.485 22.3333 2.0125 22.1333 1.6075 21.7333C1.2025 21.3333 1 20.8667 1 20.3333V3C1 2.46667 1.2025 2 1.6075 1.6C2.0125 1.2 2.485 1 3.025 1H25.975C26.515 1 26.9875 1.2 27.3925 1.6C27.7975 2 28 2.46667 28 3V20.3333C28 20.8667 27.7975 21.3333 27.3925 21.7333C26.9875 22.1333 26.515 22.3333 25.975 22.3333H19.5625V25H9.4375Z" fill="#685CF0"/>
<path d="M12.8713 14.4C11.8706 14.4 10.4076 12.8076 9.42181 11.8039C8.43598 10.8001 9.42178 10.2982 9.91476 10.8001C10.4077 11.302 11.5618 13.3127 12.8713 13.3095C14.1809 13.3063 19.0957 8.65765 20.0811 8.15547C21.0664 7.6533 21.9189 8.485 20.9335 8.98801C19.948 9.49102 13.8721 14.4 12.8713 14.4Z" fill="white"/>
<path d="M9.4375 25V22.3333H3.025C2.485 22.3333 2.0125 22.1333 1.6075 21.7333C1.2025 21.3333 1 20.8667 1 20.3333V3C1 2.46667 1.2025 2 1.6075 1.6C2.0125 1.2 2.485 1 3.025 1H25.975C26.515 1 26.9875 1.2 27.3925 1.6C27.7975 2 28 2.46667 28 3V20.3333C28 20.8667 27.7975 21.3333 27.3925 21.7333C26.9875 22.1333 26.515 22.3333 25.975 22.3333H19.5625V25H9.4375Z" stroke="white"/>
<path d="M12.8713 14.4C11.8706 14.4 10.4076 12.8076 9.42181 11.8039C8.43598 10.8001 9.42178 10.2982 9.91476 10.8001C10.4077 11.302 11.5618 13.3127 12.8713 13.3095C14.1809 13.3063 19.0957 8.65765 20.0811 8.15547C21.0664 7.6533 21.9189 8.485 20.9335 8.98801C19.948 9.49102 13.8721 14.4 12.8713 14.4Z" stroke="white"/>
</svg>
