<svg width="288" height="288" viewBox="0 0 288 288" fill="none" xmlns="http://www.w3.org/2000/svg">
<path d="M0 20C0 8.9543 8.95431 0 20 0H268C279.046 0 288 8.95431 288 20V268C288 279.046 279.046 288 268 288H20C8.9543 288 0 279.046 0 268V20Z" fill="#685CF0"/>
<path d="M66.1159 200.884V178.991H69.9361L78.1351 190.128H76.3131L84.3357 178.991H88.156V200.884H84.13V183.545L85.6875 183.928L77.371 195.006H76.9008L68.7901 183.928L70.1125 183.545V200.884H66.1159Z" fill="#FEFEFE"/>
<path d="M99.8396 201.236C98.2723 201.236 96.8421 200.874 95.5491 200.149C94.2757 199.424 93.2569 198.435 92.4929 197.181C91.7484 195.927 91.3762 194.497 91.3762 192.891C91.3762 191.284 91.7484 189.854 92.4929 188.6C93.2569 187.346 94.2757 186.357 95.5491 185.632C96.8225 184.907 98.2527 184.545 99.8396 184.545C101.407 184.545 102.827 184.907 104.101 185.632C105.374 186.357 106.383 187.346 107.128 188.6C107.892 189.834 108.274 191.264 108.274 192.891C108.274 194.497 107.892 195.927 107.128 197.181C106.363 198.435 105.345 199.424 104.071 200.149C102.798 200.874 101.387 201.236 99.8396 201.236ZM99.8396 197.71C100.702 197.71 101.456 197.504 102.102 197.093C102.768 196.681 103.288 196.113 103.66 195.388C104.052 194.644 104.248 193.811 104.248 192.891C104.248 191.95 104.052 191.127 103.66 190.422C103.288 189.697 102.768 189.129 102.102 188.718C101.456 188.287 100.702 188.071 99.8396 188.071C98.958 188.071 98.1841 188.287 97.518 188.718C96.8519 189.129 96.3229 189.697 95.9311 190.422C95.5589 191.127 95.3728 191.95 95.3728 192.891C95.3728 193.811 95.5589 194.644 95.9311 195.388C96.3229 196.113 96.8519 196.681 97.518 197.093C98.1841 197.504 98.958 197.71 99.8396 197.71Z" fill="#FEFEFE"/>
<path d="M115.725 200.884L109.437 184.897H113.639L118.194 197.475H116.636L121.221 184.897H125.423L119.134 200.884H115.725Z" fill="#FEFEFE"/>
<path d="M127.551 200.884V184.897H131.401V200.884H127.551ZM127.551 183.105V178.991H131.401V183.105H127.551Z" fill="#FEFEFE"/>
<path d="M142.537 201.236C140.891 201.236 139.451 200.864 138.217 200.12C136.983 199.375 136.023 198.366 135.337 197.093C134.651 195.819 134.309 194.409 134.309 192.861C134.309 191.255 134.651 189.834 135.337 188.6C136.042 187.346 136.993 186.357 138.188 185.632C139.402 184.907 140.754 184.545 142.243 184.545C143.497 184.545 144.594 184.75 145.534 185.162C146.494 185.573 147.307 186.141 147.973 186.866C148.64 187.591 149.149 188.424 149.502 189.364C149.854 190.285 150.03 191.284 150.03 192.362C150.03 192.636 150.011 192.92 149.972 193.214C149.952 193.508 149.903 193.762 149.825 193.978H137.482V191.039H147.65L145.828 192.42C146.005 191.519 145.956 190.716 145.681 190.011C145.427 189.305 144.996 188.747 144.388 188.336C143.8 187.924 143.085 187.718 142.243 187.718C141.44 187.718 140.725 187.924 140.098 188.336C139.471 188.727 138.991 189.315 138.658 190.099C138.344 190.863 138.227 191.793 138.305 192.891C138.227 193.87 138.354 194.742 138.687 195.506C139.04 196.25 139.549 196.828 140.215 197.24C140.901 197.651 141.685 197.857 142.566 197.857C143.448 197.857 144.192 197.671 144.8 197.299C145.427 196.926 145.916 196.427 146.269 195.8L149.384 197.328C149.071 198.092 148.581 198.768 147.915 199.356C147.249 199.943 146.455 200.404 145.534 200.737C144.633 201.07 143.634 201.236 142.537 201.236Z" fill="#FEFEFE"/>
<path d="M159.12 200.884L151.479 178.991H155.829L161.824 197.122H160.971L166.966 178.991H171.316L163.704 200.884H159.12Z" fill="#FEFEFE"/>
<path d="M177.111 201.236C175.995 201.236 175.025 201.05 174.202 200.678C173.379 200.306 172.743 199.777 172.292 199.091C171.841 198.386 171.616 197.573 171.616 196.652C171.616 195.77 171.812 194.987 172.204 194.301C172.596 193.596 173.203 193.008 174.026 192.538C174.849 192.068 175.887 191.735 177.141 191.539L182.372 190.686V193.625L177.875 194.389C177.111 194.526 176.543 194.771 176.171 195.124C175.799 195.477 175.613 195.937 175.613 196.505C175.613 197.054 175.818 197.494 176.23 197.827C176.661 198.141 177.19 198.298 177.817 198.298C178.62 198.298 179.325 198.131 179.933 197.798C180.559 197.445 181.039 196.965 181.372 196.358C181.725 195.751 181.901 195.085 181.901 194.36V190.246C181.901 189.56 181.627 188.992 181.079 188.541C180.55 188.071 179.844 187.836 178.963 187.836C178.14 187.836 177.405 188.061 176.759 188.512C176.132 188.943 175.671 189.521 175.378 190.246L172.233 188.718C172.547 187.875 173.036 187.15 173.703 186.543C174.388 185.916 175.191 185.426 176.112 185.074C177.033 184.721 178.032 184.545 179.11 184.545C180.422 184.545 181.578 184.79 182.577 185.279C183.577 185.749 184.35 186.416 184.899 187.278C185.467 188.12 185.751 189.109 185.751 190.246V200.884H182.107V198.151L182.93 198.092C182.519 198.778 182.029 199.356 181.461 199.826C180.893 200.276 180.246 200.629 179.521 200.884C178.796 201.119 177.993 201.236 177.111 201.236Z" fill="#FEFEFE"/>
<path d="M195.01 201.236C193.776 201.236 192.699 200.962 191.778 200.414C190.877 199.865 190.181 199.101 189.691 198.121C189.221 197.142 188.986 195.996 188.986 194.683V184.897H192.836V194.36C192.836 195.026 192.963 195.614 193.218 196.123C193.492 196.613 193.874 197.005 194.364 197.299C194.873 197.573 195.441 197.71 196.068 197.71C196.695 197.71 197.254 197.573 197.743 197.299C198.233 197.005 198.615 196.603 198.889 196.094C199.164 195.584 199.301 194.977 199.301 194.272V184.897H203.15V200.884H199.507V197.739L199.83 198.298C199.458 199.277 198.84 200.012 197.978 200.502C197.136 200.991 196.147 201.236 195.01 201.236Z" fill="#FEFEFE"/>
<path d="M206.729 200.884V178.638H210.579V200.884H206.729Z" fill="#FEFEFE"/>
<path d="M221.421 201.06C219.619 201.06 218.218 200.57 217.219 199.591C216.239 198.592 215.749 197.191 215.749 195.388V188.336H212.987V184.897H213.281C214.065 184.897 214.672 184.692 215.103 184.28C215.534 183.869 215.749 183.271 215.749 182.488V181.253H219.599V184.897H223.272V188.336H219.599V195.183C219.599 195.712 219.687 196.162 219.864 196.534C220.059 196.907 220.353 197.191 220.745 197.387C221.157 197.583 221.676 197.681 222.303 197.681C222.44 197.681 222.597 197.671 222.773 197.651C222.969 197.632 223.155 197.612 223.331 197.592V200.884C223.057 200.923 222.743 200.962 222.391 201.001C222.038 201.04 221.715 201.06 221.421 201.06Z" fill="#FEFEFE"/>
<path d="M65.9203 86H75.0808L105.963 115.002L137.684 86H146.525V149.884H120.243V129.163L103.923 147.084L88.0416 129.643V149.884H65.9203V86Z" fill="#FEFEFE"/>
<path d="M181.487 86L191.448 106.041L200.728 86H224.17L192.768 149.804C192.448 150.417 191.941 150.897 191.248 151.244C190.581 151.59 189.888 151.764 189.167 151.764C188.421 151.764 187.714 151.604 187.047 151.284C186.407 150.964 185.914 150.47 185.567 149.804L152.485 86H181.487Z" fill="#FEFEFE"/>
<path d="M64 164.884H224V167.884H64V164.884Z" fill="white"/>
</svg>
