<svg width="24" height="24" viewBox="0 0 24 24" fill="none" xmlns="http://www.w3.org/2000/svg">
<g clip-path="url(#clip0_1162_2522)">
<path d="M4.11475 2.33185V21.6668C4.11475 21.9923 4.18072 22.3069 4.31084 22.6018C4.43475 22.8827 4.611 23.1325 4.83469 23.3443C5.26792 23.7543 5.83424 23.98 6.4294 23.98C6.9383 23.98 7.42267 23.8155 7.83016 23.5043L12.0001 20.3193L16.17 23.5042C16.5775 23.8155 17.0619 23.98 17.5708 23.98C18.166 23.98 18.7323 23.7542 19.1656 23.3442C19.3892 23.1325 19.5655 22.8827 19.6894 22.6018C19.8195 22.3069 19.8855 21.9923 19.8855 21.6667V2.33185C19.8855 1.05695 18.8483 0.0197754 17.5734 0.0197754H6.42682C5.15192 0.0197754 4.11475 1.05699 4.11475 2.33185ZM18.1819 2.33185V21.6668C18.1819 22.0275 17.8859 22.2764 17.5708 22.2764C17.4458 22.2764 17.3179 22.2372 17.2041 22.1504L12.3694 18.4577C12.2604 18.3745 12.1303 18.3328 12.0001 18.3328C11.87 18.3328 11.7398 18.3745 11.6308 18.4577L6.79614 22.1503C6.68244 22.2372 6.55439 22.2763 6.4294 22.2763C6.11433 22.2763 5.81838 22.0275 5.81838 21.6668V2.33185C5.81838 1.99581 6.09078 1.72341 6.42682 1.72341H17.5734C17.9095 1.72341 18.1819 1.99581 18.1819 2.33185Z" fill="#B0B0B3"/>
<path d="M6.42927 24C5.82902 24 5.2578 23.7723 4.82092 23.3588C4.59528 23.1452 4.41752 22.8933 4.29253 22.61C4.1613 22.3125 4.09473 21.9952 4.09473 21.6669V2.33195C4.09473 1.04612 5.14084 0 6.42668 0H17.5733C18.8591 0 19.9052 1.04612 19.9052 2.33195V21.6669C19.9052 21.9952 19.8386 22.3124 19.7074 22.61C19.5825 22.8932 19.4047 23.1451 19.1791 23.3587C18.7422 23.7722 18.1709 24 17.5707 24C17.0574 24 16.5688 23.8341 16.1578 23.5202L12 20.3445L7.84212 23.5202C7.43104 23.8341 6.9425 24 6.42927 24ZM6.42668 0.0397673C5.16276 0.0397673 4.13449 1.06803 4.13449 2.33195V21.6669C4.13449 21.9896 4.19991 22.3015 4.32892 22.5939C4.45176 22.8724 4.62649 23.12 4.84828 23.3299C5.27776 23.7364 5.83924 23.9603 6.4293 23.9603C6.93375 23.9603 7.41394 23.7971 7.81802 23.4886L12 20.2945L12.0121 20.3037L16.182 23.4886C16.586 23.7971 17.0662 23.9602 17.5707 23.9602C18.1608 23.9602 18.7223 23.7363 19.1518 23.3298C19.3736 23.1199 19.5483 22.8723 19.6711 22.5939C19.8001 22.3015 19.8655 21.9896 19.8655 21.6669V2.33195C19.8655 1.06803 18.8373 0.0397673 17.5733 0.0397673H6.42668ZM17.5707 22.2964C17.4344 22.2964 17.3034 22.2514 17.1919 22.1663L12.3573 18.4737C12.2537 18.3946 12.1302 18.3528 12 18.3528C11.8698 18.3528 11.7463 18.3946 11.6428 18.4737L6.80813 22.1663C6.69674 22.2514 6.56575 22.2963 6.42934 22.2963C6.12592 22.2963 5.79844 22.0557 5.79844 21.6669V2.33195C5.79844 1.9855 6.08031 1.70363 6.42676 1.70363H17.5734C17.9198 1.70363 18.2017 1.9855 18.2017 2.33195V21.6669C18.2016 22.0557 17.8741 22.2964 17.5707 22.2964ZM12 18.313C12.139 18.313 12.2709 18.3576 12.3814 18.442L17.2161 22.1346C17.3206 22.2144 17.4432 22.2566 17.5707 22.2566C17.855 22.2566 18.1619 22.0311 18.1619 21.6669V2.33195C18.1619 2.00741 17.8978 1.7434 17.5733 1.7434H6.42668C6.10214 1.7434 5.83812 2.00741 5.83812 2.33195V21.6669C5.83812 22.0311 6.14497 22.2566 6.42927 22.2566C6.55684 22.2566 6.67948 22.2144 6.78391 22.1346L11.6186 18.442C11.7291 18.3576 11.861 18.313 12 18.313Z" fill="#B0B0B3"/>
</g>
<defs>
<clipPath id="clip0_1162_2522">
<rect width="24" height="24" fill="white"/>
</clipPath>
</defs>
</svg>
